# Blender 4.0.2
# www.blender.org
mtllib Grey_Wall_01.mtl
o Grey_Wall_01
v 0.500000 2.200000 -0.000000
v 0.500000 2.200000 -0.500000
v 0.400000 2.200000 -0.500000
v 0.100000 2.200000 -0.500000
v 0.000000 2.200000 -0.500000
v 0.000000 2.200000 -0.000000
v 0.500000 0.000000 0.000000
v 0.500000 -0.000000 -0.500000
v 0.000000 -0.000000 -0.500000
v 0.100000 -0.000000 -0.500000
v 0.400000 -0.000000 -0.500000
v 0.000000 0.000000 0.000000
v 0.100000 -0.000000 -2.500000
v 0.100000 2.200000 -2.500000
v 0.400000 -0.000000 -2.500000
v 0.500000 -0.000000 -2.500000
v 0.000000 -0.000000 -2.500000
v 0.000000 -0.000000 -3.000000
v 0.500000 -0.000000 -3.000000
v 0.500000 2.200000 -2.500000
v 0.400000 2.200000 -2.500000
v 0.500000 2.200000 -3.000000
v 0.000000 2.200000 -3.000000
v 0.000000 2.200000 -2.500000
vn -0.0000 1.0000 -0.0000
vn 1.0000 -0.0000 -0.0000
vn -0.0000 -1.0000 -0.0000
vn -0.0000 -0.0000 -1.0000
vn -1.0000 -0.0000 -0.0000
vn -0.0000 -0.0000 1.0000
vt 0.606444 0.206225
vt 0.606444 0.324434
vt 0.582802 0.324434
vt 0.511877 0.324434
vt 0.488235 0.324434
vt 0.488235 0.206225
vt 0.606444 0.726346
vt 0.488235 0.726346
vt 0.464593 0.324434
vt 0.393668 0.324434
vt 0.370026 0.324434
vt 0.370026 0.206225
vt 0.464593 0.726346
vt 0.464593 0.206225
vt 0.370026 0.726346
vt -0.102811 0.206225
vt -0.102811 0.726346
vt 0.464593 0.797271
vt 0.393668 0.797271
vt 0.370026 0.797271
vt 0.488235 0.797271
vt 0.488235 0.915479
vt 0.370026 0.915479
vt 0.582802 0.726346
vt 0.582802 0.206225
vt 1.197489 0.726346
vt 1.079281 0.726346
vt 1.079281 0.206225
vt 1.197489 0.206225
vt 0.511877 0.797271
vt 0.582802 0.797271
vt 0.606444 0.797271
vt 0.606444 0.915479
vt -0.221019 0.206225
vt -0.221019 0.726346
vt 0.511877 0.206225
vt 0.511877 0.726346
vt 0.393668 0.206225
vt 0.393668 0.726346
s 0
usemtl Light_Stone
f 1/1/1 2/2/1 3/3/1 4/4/1 5/5/1 6/6/1
f 7/6/2 8/1/2 2/7/2 1/8/2
f 9/5/3 10/9/3 11/10/3 8/11/3 7/12/3 12/6/3
f 9/6/4 5/8/4 4/13/4 10/14/4
f 6/8/5 5/15/5 9/12/5 12/6/5
f 12/6/6 7/1/6 1/7/6 6/8/6
f 16/20/3 15/19/3 13/18/3 17/21/3 18/22/3 19/23/3
f 16/1/6 20/7/6 21/24/6 15/25/6
f 22/26/2 20/27/2 16/28/2 19/29/2
f 23/22/1 24/21/1 14/30/1 21/31/1 20/32/1 22/33/1
f 18/34/5 17/16/5 24/17/5 23/35/5
f 24/8/6 17/6/6 13/36/6 14/37/6
f 19/12/4 18/6/4 23/8/4 22/15/4
f 2/15/4 8/12/4 11/38/4 3/39/4
usemtl Dark_Stone
f 13/16/5 10/12/5 4/15/5 14/17/5
f 10/9/3 13/18/3 15/19/3 11/10/3
f 21/31/1 14/30/1 4/4/1 3/3/1
f 11/1/2 15/28/2 21/27/2 3/7/2
